<?xml version="1.0" standalone="no"?>
<!DOCTYPE svg PUBLIC "-//W3C//DTD SVG 20010904//EN"
 "http://www.w3.org/TR/2001/REC-SVG-20010904/DTD/svg10.dtd">
<svg version="1.0" xmlns="http://www.w3.org/2000/svg"
 width="229.000000pt" height="229.000000pt" viewBox="0 0 229.000000 229.000000"
 preserveAspectRatio="xMidYMid meet">
<metadata>
Created by potrace 1.14, written by Peter Selinger 2001-2017
</metadata>
<g transform="translate(0.000000,229.000000) scale(0.100000,-0.100000)"
fill="#000000" stroke="none">
<path d="M1075 2265 c-34 -15 -59 -41 -170 -180 -132 -164 -285 -385 -344
-495 -10 -19 -39 -73 -65 -119 -103 -188 -181 -406 -209 -581 -64 -409 147
-723 570 -845 154 -45 359 -51 526 -16 177 37 292 96 403 207 149 148 218 343
218 614 0 288 -109 582 -334 906 -148 212 -389 481 -457 510 -40 17 -98 17
-138 -1z m326 -435 c240 -299 388 -596 426 -855 8 -57 9 -180 1 -250 -19 -157
-72 -280 -163 -370 -247 -246 -796 -237 -1064 18 -81 77 -131 173 -149 290 -8
53 -8 78 2 187 14 156 101 382 239 625 43 75 157 257 167 265 4 3 22 28 40 55
34 50 131 177 173 226 12 14 33 40 47 58 l25 32 90 -93 c50 -52 124 -136 166
-188z"/>
<path d="M700 1243 c-47 -17 -67 -63 -105 -245 -54 -265 -17 -455 115 -589 89
-90 287 -174 364 -155 27 7 56 51 56 86 0 32 -50 76 -94 84 -52 10 -132 47
-183 84 -28 21 -52 52 -74 98 -30 61 -34 78 -35 159 -2 95 12 188 46 313 11
40 20 81 20 92 0 42 -69 87 -110 73z"/>
</g>
</svg>
